FAIDC1_INITIAL_WALK01_kinetics.mot
nRows=20
nColumns=19

name FAIDC1_INITIAL_WALK01_kinetics.mot
datacolumns 19
datarows 20
range 0.2800000012 0.2894999981
endheader
time	ground_force_vx	ground_force_vy	ground_force_vz	ground_force_px	ground_force_py	ground_force_pz	1_ground_force_vx	1_ground_force_vy	1_ground_force_vz	1_ground_force_px	1_ground_force_py	1_ground_force_pz	ground_torque_x	ground_torque_y	ground_torque_z	1_ground_torque_x	1_ground_torque_y	1_ground_torque_z
        0.2800000012	        0.0000000000	        0.0000000000	        0.0000000000	        0.8362041116	        0.0000000000	        0.2473450303	      -44.0492210388	      566.5405273438	       19.5220642090	        0.5101795197	        0.0000000000	       -0.0408747680	        0.0000000000	        0.0000000000	        0.0000000000	       -0.0000000000	        0.7706250548	       -0.0000000000	
        0.2804999948	        0.0000000000	        0.0000000000	        0.0000000000	        0.8362041116	        0.0000000000	        0.2473450303	      -43.8938522339	      565.7525024414	       19.4292945862	        0.5105077624	        0.0000000000	       -0.0409050658	        0.0000000000	        0.0000000000	        0.0000000000	        0.0000000000	        0.7607417107	        0.0000000000	
        0.2809999883	        0.0000000000	        0.0000000000	        0.0000000000	        0.8362041116	        0.0000000000	        0.2473450303	      -43.7331008911	      564.9717407227	       19.3307304382	        0.5108395815	        0.0000000000	       -0.0409325212	        0.0000000000	        0.0000000000	        0.0000000000	        0.0000000000	        0.7498620749	        0.0000000000	
        0.2815000117	        0.0000000000	        0.0000000000	        0.0000000000	        0.8362041116	        0.0000000000	        0.2473450303	      -43.5667572021	      564.1990356445	       19.2265491486	        0.5111740232	        0.0000000000	       -0.0409564599	        0.0000000000	        0.0000000000	        0.0000000000	        0.0000000000	        0.7380261421	        0.0000000000	
        0.2820000052	        0.0000000000	        0.0000000000	        0.0000000000	        0.8362041116	        0.0000000000	        0.2473450303	      -43.3947029114	      563.4353027344	       19.1170330048	        0.5115099549	        0.0000000000	       -0.0409763232	        0.0000000000	        0.0000000000	        0.0000000000	        0.0000000000	        0.7252837420	        0.0000000000	
        0.2824999988	        0.0000000000	        0.0000000000	        0.0000000000	        0.8362041116	        0.0000000000	        0.2473450303	      -43.2169075012	      562.6815795898	       19.0025634766	        0.5118463039	        0.0000000000	       -0.0409916788	        0.0000000000	        0.0000000000	        0.0000000000	        0.0000000000	        0.7116954923	        0.0000000000	
        0.2829999924	        0.0000000000	        0.0000000000	        0.0000000000	        0.8362041116	        0.0000000000	        0.2473450303	      -43.0334129333	      561.9389648438	       18.8836135864	        0.5121816993	        0.0000000000	       -0.0410022251	        0.0000000000	        0.0000000000	        0.0000000000	        0.0000000000	        0.6973334551	        0.0000000000	
        0.2834999859	        0.0000000000	        0.0000000000	        0.0000000000	        0.8362041116	        0.0000000000	        0.2473450303	      -42.8443450928	      561.2086181641	       18.7607440948	        0.5125149488	        0.0000000000	       -0.0410077833	        0.0000000000	        0.0000000000	        0.0000000000	        0.0000000000	        0.6822814941	        0.0000000000	
        0.2840000093	        0.0000000000	        0.0000000000	        0.0000000000	        0.8362041116	        0.0000000000	        0.2473450303	      -42.6498870850	      560.4916381836	       18.6345806122	        0.5128446817	        0.0000000000	       -0.0410083160	        0.0000000000	        0.0000000000	        0.0000000000	        0.0000000000	        0.6666347980	        0.0000000000	
        0.2845000029	        0.0000000000	        0.0000000000	        0.0000000000	        0.8362041116	        0.0000000000	        0.2473450303	      -42.4502906799	      559.7891845703	       18.5058021545	        0.5131697059	        0.0000000000	       -0.0410038978	        0.0000000000	        0.0000000000	        0.0000000000	        0.0000000000	        0.6504994035	        0.0000000000	
        0.2849999964	        0.0000000000	        0.0000000000	        0.0000000000	        0.8362041116	        0.0000000000	        0.2473450303	      -42.2458686829	      559.1023559570	       18.3751220703	        0.5134888291	        0.0000000000	       -0.0409947261	        0.0000000000	        0.0000000000	        0.0000000000	        0.0000000000	        0.6339908838	        0.0000000000	
        0.2854999900	        0.0000000000	        0.0000000000	        0.0000000000	        0.8362041116	        0.0000000000	        0.2473450303	      -42.0369720459	      558.4323730469	       18.2432727814	        0.5138010383	        0.0000000000	       -0.0409811027	        0.0000000000	        0.0000000000	        0.0000000000	        0.0000000000	        0.6172327399	        0.0000000000	
        0.2860000134	        0.0000000000	        0.0000000000	        0.0000000000	        0.8362041116	        0.0000000000	        0.2473450303	      -41.8240089417	      557.7801513672	       18.1109809875	        0.5141053200	        0.0000000000	       -0.0409634262	        0.0000000000	        0.0000000000	        0.0000000000	        0.0000000000	        0.6003544331	       -0.0000000000	
        0.2865000069	        0.0000000000	        0.0000000000	        0.0000000000	        0.8362041116	        0.0000000000	        0.2473450303	      -41.6074218750	      557.1464843750	       17.9789543152	        0.5144009590	        0.0000000000	       -0.0409421660	        0.0000000000	        0.0000000000	        0.0000000000	        0.0000000000	        0.5834891200	        0.0000000000	
        0.2870000005	        0.0000000000	        0.0000000000	        0.0000000000	        0.8362041116	        0.0000000000	        0.2473450303	      -41.3876914978	      556.5322875977	       17.8478660583	        0.5146872401	        0.0000000000	       -0.0409178622	        0.0000000000	        0.0000000000	        0.0000000000	        0.0000000000	        0.5667716861	        0.0000000000	
        0.2874999940	        0.0000000000	        0.0000000000	        0.0000000000	        0.8362041116	        0.0000000000	        0.2473450303	      -41.1653251648	      555.9381103516	       17.7183322906	        0.5149638057	        0.0000000000	       -0.0408910923	        0.0000000000	        0.0000000000	        0.0000000000	        0.0000000000	        0.5503360033	        0.0000000000	
        0.2879999876	        0.0000000000	        0.0000000000	        0.0000000000	        0.8362041116	        0.0000000000	        0.2473450303	      -40.9408569336	      555.3643798828	       17.5909080505	        0.5152304173	        0.0000000000	       -0.0408624634	        0.0000000000	        0.0000000000	        0.0000000000	        0.0000000000	        0.5343129635	        0.0000000000	
        0.2885000110	        0.0000000000	        0.0000000000	        0.0000000000	        0.8362041116	        0.0000000000	        0.2473450303	      -40.7148323059	      554.8114624023	       17.4660758972	        0.5154868960	        0.0000000000	       -0.0408325903	        0.0000000000	        0.0000000000	        0.0000000000	        0.0000000000	        0.5188280344	        0.0000000000	
        0.2890000045	        0.0000000000	        0.0000000000	        0.0000000000	        0.8362041116	        0.0000000000	        0.2473450303	      -40.4878234863	      554.2794799805	       17.3442344666	        0.5157334805	        0.0000000000	       -0.0408020765	        0.0000000000	        0.0000000000	        0.0000000000	        0.0000000000	        0.5039985180	        0.0000000000	
        0.2894999981	        0.0000000000	        0.0000000000	        0.0000000000	        0.8362041116	        0.0000000000	        0.2473450303	      -40.2604103088	      553.7684326172	       17.2257061005	        0.5159703493	        0.0000000000	       -0.0407714918	        0.0000000000	        0.0000000000	        0.0000000000	        0.0000000000	        0.4899314940	        0.0000000000	
